<svg xmlns="http://www.w3.org/2000/svg" width="193" height="64" viewBox="0 0 193 64" role="img" aria-label="LinkedIn">
<title>LinkedIn</title>
<defs></defs>
<rect x="1" y="1" width="191" height="62" rx="31.0" fill="#0A1628" stroke="#1D3354" stroke-width="2"/><rect x="26" y="19" width="26" height="26" rx="5" fill="#58A6FF"/><path d="M33.5 39.8V30.7H36.3V39.8H33.5ZM34.9 30.1Q34.1 30.1 33.7 29.8Q33.2 29.4 33.2 28.8Q33.2 28.2 33.7 27.8Q34.1 27.5 34.9 27.5Q35.7 27.5 36.1 27.8Q36.5 28.2 36.5 28.8Q36.5 29.4 36.1 29.8Q35.7 30.1 34.9 30.1ZM37.4 39.8V34.6V30.7H39.7V34.3H39.9Q40 33 40.3 32.2Q40.6 31.3 41.2 30.9Q41.8 30.5 42.8 30.5Q44.2 30.5 44.9 31.5Q45.6 32.4 45.6 34.4V39.8H42.8V34.8Q42.8 33.8 42.6 33.4Q42.3 32.9 41.7 32.9Q41.3 32.9 40.9 33.3Q40.6 33.6 40.4 34.4Q40.2 35.2 40.2 36.4V39.8H37.4Z" fill="#0A1628"/><path d="M68 41V24.5H70.7V41H68ZM68.7 41V38.6H78.1V41H68.7ZM80.3 41V28H83.1V41H80.3ZM81.7 25.9Q80.8 25.9 80.4 25.5Q79.9 25.2 79.9 24.5Q79.9 23.7 80.4 23.4Q80.8 23 81.7 23Q82.6 23 83 23.4Q83.5 23.7 83.5 24.5Q83.5 25.2 83 25.5Q82.6 25.9 81.7 25.9ZM86.7 41V33.1L86.7 28H89L88.9 32.2H89.3Q89.6 30.6 90.2 29.7Q90.8 28.7 91.7 28.2Q92.6 27.7 93.9 27.7Q96.1 27.7 97.2 29.2Q98.3 30.8 98.3 34V41H95.6V34.2Q95.6 32.1 94.9 31Q94.3 30 93 30Q91.9 30 91.1 30.7Q90.3 31.5 89.9 32.6Q89.4 33.8 89.4 35.3V41H86.7ZM101.7 41V23.4H104.4V33.3Q105.3 32.8 106.2 32.2Q107 31.5 107.7 30.8Q108.5 30.1 109 29.3Q109.5 28.6 109.8 28H112.9Q112.5 28.9 111.8 29.9Q111.2 30.8 110.3 31.6Q109.4 32.4 108.4 33Q107.3 33.6 106.2 33.9V34.2Q107.6 34 108.6 34.4Q109.6 34.8 110.3 35.5Q111.1 36.2 111.6 37.2Q112.2 38.2 112.6 39.2L113.3 41H110.3L109.9 39.8Q109.3 38.5 108.7 37.5Q108.1 36.6 107.3 36Q106.5 35.4 105.2 35.4L104.4 35.4V41H101.7ZM121.1 41.3Q119.5 41.3 118.3 40.9Q117.1 40.4 116.3 39.5Q115.5 38.7 115 37.5Q114.6 36.2 114.6 34.7Q114.6 33.2 115 31.9Q115.4 30.6 116.2 29.7Q117 28.7 118.2 28.2Q119.4 27.7 120.8 27.7Q122.2 27.7 123.3 28.1Q124.4 28.6 125.1 29.5Q125.9 30.4 126.2 31.8Q126.6 33.1 126.5 34.9L116.4 35V33.3L124.9 33.2L124 34.3Q124.1 32.8 123.7 31.8Q123.3 30.9 122.6 30.4Q121.8 29.9 120.9 29.9Q119.8 29.9 118.9 30.5Q118.1 31 117.7 32.1Q117.3 33.2 117.3 34.7Q117.3 36.9 118.2 38.1Q119.2 39.2 121.1 39.2Q121.9 39.2 122.4 39Q123 38.8 123.3 38.5Q123.7 38.2 124 37.7Q124.2 37.3 124.3 36.8L126.7 37.3Q126.5 38.2 126 39Q125.6 39.7 124.9 40.2Q124.2 40.8 123.3 41Q122.3 41.3 121.1 41.3ZM134.2 41.3Q132.6 41.3 131.4 40.5Q130.2 39.6 129.6 38.1Q129 36.6 129 34.5Q129 32.5 129.6 31Q130.2 29.4 131.3 28.6Q132.5 27.7 134.1 27.7Q135.5 27.7 136.4 28.2Q137.3 28.8 137.8 29.7Q138.3 30.7 138.6 31.8H139.1Q139 31.1 138.8 30.3Q138.7 29.5 138.6 28.7Q138.6 28 138.6 27.4V23.4H141.3L141.3 34.7L141.3 41H138.9L139 37.4H138.6Q138.3 38.6 137.8 39.5Q137.2 40.4 136.3 40.8Q135.5 41.3 134.2 41.3ZM135 39Q135.9 39 136.5 38.6Q137.2 38.2 137.7 37.6Q138.1 36.9 138.3 36.2Q138.6 35.4 138.6 34.7V34.4Q138.6 33.9 138.4 33.3Q138.3 32.7 138 32.1Q137.7 31.5 137.3 31.1Q136.9 30.6 136.3 30.3Q135.7 30 135 30Q134 30 133.3 30.6Q132.5 31.2 132.2 32.2Q131.8 33.2 131.8 34.6Q131.8 35.9 132.2 36.9Q132.6 37.9 133.3 38.5Q134 39 135 39ZM145.1 41V24.5H147.9V41H145.1ZM151.7 41V33.1L151.7 28H154L153.9 32.2H154.3Q154.6 30.6 155.2 29.7Q155.8 28.7 156.7 28.2Q157.6 27.7 158.9 27.7Q161.1 27.7 162.2 29.2Q163.3 30.8 163.3 34V41H160.6V34.2Q160.6 32.1 159.9 31Q159.3 30 158 30Q156.9 30 156.1 30.7Q155.3 31.5 154.9 32.6Q154.4 33.8 154.4 35.3V41H151.7Z" fill="#E6EDF3"/>
</svg>
